<?xml version="1.0" encoding="UTF-8"?>
<svg width="240" height="360" xmlns="http://www.w3.org/2000/svg">
<!-- https://grok.com/share/c2hhcmQtNA%3D%3D_9a71f40c-fce1-4bad-8927-ac8ab948bcd1 -->
<rect width="240" height="360" fill="#F5F5F5"/>
<line x1="30" y1="315" x2="210" y2="315" stroke="black" stroke-width="1"/>
<line x1="30" y1="45" x2="30" y2="315" stroke="black" stroke-width="1"/>
<line x1="30" y1="315" x2="30" y2="320" stroke="black" stroke-width="1"/>
<text x="30" y="330" font-family="Arial" font-size="10" text-anchor="middle">175</text>
<line x1="75" y1="315" x2="75" y2="320" stroke="black" stroke-width="1"/>
<text x="75" y="330" font-family="Arial" font-size="10" text-anchor="middle">177.5</text>
<line x1="120" y1="315" x2="120" y2="320" stroke="black" stroke-width="1"/>
<text x="120" y="330" font-family="Arial" font-size="10" text-anchor="middle">180</text>
<line x1="165" y1="315" x2="165" y2="320" stroke="black" stroke-width="1"/>
<text x="165" y="330" font-family="Arial" font-size="10" text-anchor="middle">182.5</text>
<line x1="210" y1="315" x2="210" y2="320" stroke="black" stroke-width="1"/>
<text x="210" y="330" font-family="Arial" font-size="10" text-anchor="middle">185</text>
<line x1="30" y1="315" x2="25" y2="315" stroke="black" stroke-width="1"/>
<text x="20" y="319" font-family="Arial" font-size="10" text-anchor="end">20</text>
<line x1="30" y1="261" x2="25" y2="261" stroke="black" stroke-width="1"/>
<text x="20" y="265" font-family="Arial" font-size="10" text-anchor="end">40</text>
<line x1="30" y1="207" x2="25" y2="207" stroke="black" stroke-width="1"/>
<text x="20" y="211" font-family="Arial" font-size="10" text-anchor="end">60</text>
<line x1="30" y1="153" x2="25" y2="153" stroke="black" stroke-width="1"/>
<text x="20" y="157" font-family="Arial" font-size="10" text-anchor="end">80</text>
<line x1="30" y1="261" x2="210" y2="261" stroke="#D3D3D3" stroke-width="0.5"/>
<line x1="30" y1="207" x2="210" y2="207" stroke="#D3D3D3" stroke-width="0.5"/>
<line x1="30" y1="153" x2="210" y2="153" stroke="#D3D3D3" stroke-width="0.5"/>
<line x1="75" y1="45" x2="75" y2="315" stroke="#D3D3D3" stroke-width="0.5"/>
<line x1="120" y1="45" x2="120" y2="315" stroke="#D3D3D3" stroke-width="0.5"/>
<line x1="165" y1="45" x2="165" y2="315" stroke="#D3D3D3" stroke-width="0.5"/>
<circle cx="64.3" cy="183.8" r="5" fill="#87CEEB"/>
<circle cx="74.6" cy="174.7" r="2" fill="#FFA07A"/>
<circle cx="85.9" cy="165.6" r="2" fill="#FFA07A"/>
<circle cx="97.9" cy="156.6" r="2" fill="#FFA07A"/>
<circle cx="110.5" cy="147.9" r="2" fill="#FFA07A"/>
<circle cx="123.2" cy="139.3" r="2" fill="#FFA07A"/>
<circle cx="135.7" cy="131.1" r="2" fill="#FFA07A"/>
<circle cx="147.5" cy="123.3" r="2" fill="#FFA07A"/>
<circle cx="158.4" cy="115.9" r="2" fill="#FFA07A"/>
<circle cx="167.7" cy="109.0" r="2" fill="#FFA07A"/>
<circle cx="175.0" cy="102.6" r="2" fill="#FFA07A"/>
<circle cx="179.9" cy="96.7" r="2" fill="#FFA07A"/>
<circle cx="182.1" cy="91.5" r="2" fill="#FFA07A"/>
<circle cx="181.1" cy="86.9" r="2" fill="#FFA07A"/>
<circle cx="176.9" cy="83.0" r="2" fill="#FFA07A"/>
<circle cx="169.6" cy="79.8" r="2" fill="#FFA07A"/>
<circle cx="159.4" cy="77.3" r="2" fill="#FFA07A"/>
<circle cx="146.8" cy="75.6" r="2" fill="#FFA07A"/>
<circle cx="132.8" cy="74.7" r="2" fill="#FFA07A"/>
<circle cx="118.1" cy="74.6" r="2" fill="#FFA07A"/>
<circle cx="104.0" cy="75.2" r="2" fill="#FFA07A"/>
<circle cx="91.3" cy="76.7" r="2" fill="#FFA07A"/>
<circle cx="80.9" cy="78.9" r="2" fill="#FFA07A"/>
<circle cx="73.4" cy="81.8" r="2" fill="#FFA07A"/>
<circle cx="69.0" cy="85.5" r="2" fill="#FFA07A"/>
<circle cx="67.9" cy="89.9" r="2" fill="#FFA07A"/>
<circle cx="69.8" cy="94.9" r="2" fill="#FFA07A"/>
<circle cx="74.6" cy="100.6" r="2" fill="#FFA07A"/>
<circle cx="81.7" cy="106.8" r="2" fill="#FFA07A"/>
<circle cx="90.8" cy="113.6" r="2" fill="#FFA07A"/>
<circle cx="101.3" cy="120.8" r="2" fill="#FFA07A"/>
<circle cx="112.8" cy="128.5" r="2" fill="#FFA07A"/>
<circle cx="124.9" cy="136.6" r="2" fill="#FFA07A"/>
<circle cx="137.1" cy="145.1" r="2" fill="#FFA07A"/>
<circle cx="149.0" cy="153.8" r="2" fill="#FFA07A"/>
<circle cx="160.4" cy="162.7" r="2" fill="#FFA07A"/>
<circle cx="170.9" cy="171.8" r="2" fill="#FFA07A"/>
<circle cx="180.3" cy="180.9" r="2" fill="#FFA07A"/>
<circle cx="188.4" cy="190.0" r="2" fill="#FFA07A"/>
<circle cx="195.1" cy="199.1" r="2" fill="#FFA07A"/>
<circle cx="200.2" cy="208.0" r="2" fill="#FFA07A"/>
<circle cx="203.7" cy="216.7" r="2" fill="#FFA07A"/>
<circle cx="205.6" cy="225.1" r="2" fill="#FFA07A"/>
<circle cx="205.9" cy="233.2" r="2" fill="#FFA07A"/>
<circle cx="204.6" cy="240.8" r="2" fill="#FFA07A"/>
<circle cx="201.7" cy="248.0" r="2" fill="#FFA07A"/>
<circle cx="197.4" cy="254.7" r="2" fill="#FFA07A"/>
<circle cx="191.7" cy="260.8" r="2" fill="#FFA07A"/>
<circle cx="184.9" cy="266.3" r="2" fill="#FFA07A"/>
<circle cx="177.0" cy="271.2" r="2" fill="#FFA07A"/>
<circle cx="168.2" cy="275.4" r="2" fill="#FFA07A"/>
<circle cx="158.6" cy="278.8" r="2" fill="#FFA07A"/>
<circle cx="148.4" cy="281.6" r="2" fill="#FFA07A"/>
<circle cx="137.8" cy="283.6" r="2" fill="#FFA07A"/>
<circle cx="126.9" cy="284.9" r="2" fill="#FFA07A"/>
<circle cx="115.9" cy="285.5" r="2" fill="#FFA07A"/>
<circle cx="104.9" cy="285.2" r="2" fill="#FFA07A"/>
<circle cx="94.2" cy="284.3" r="2" fill="#FFA07A"/>
<circle cx="83.9" cy="282.5" r="2" fill="#FFA07A"/>
<circle cx="74.1" cy="280.0" r="2" fill="#FFA07A"/>
<circle cx="65.0" cy="276.8" r="2" fill="#FFA07A"/>
<circle cx="56.7" cy="272.9" r="2" fill="#FFA07A"/>
<circle cx="49.5" cy="268.3" r="2" fill="#FFA07A"/>
<circle cx="43.3" cy="263.0" r="2" fill="#FFA07A"/>
<circle cx="38.5" cy="257.1" r="2" fill="#FFA07A"/>
<circle cx="35.1" cy="250.7" r="2" fill="#FFA07A"/>
<circle cx="33.1" cy="243.6" r="2" fill="#FFA07A"/>
<circle cx="32.7" cy="236.1" r="2" fill="#FFA07A"/>
<circle cx="33.9" cy="228.2" r="2" fill="#FFA07A"/>
<circle cx="36.7" cy="219.9" r="2" fill="#FFA07A"/>
<circle cx="41.2" cy="211.3" r="2" fill="#FFA07A"/>
<circle cx="47.3" cy="202.4" r="2" fill="#FFA07A"/>
<circle cx="54.9" cy="193.4" r="2" fill="#FFA07A"/>
<rect x="140" y="140" width="100" height="40" fill="white" stroke="black" stroke-width="0.5"/>
<circle cx="150" cy="150" r="5" fill="#87CEEB"/>
<text x="160" y="154" font-family="Arial" font-size="10">startday</text>
<circle cx="150" cy="170" r="2" fill="#FFA07A"/>
<text x="160" y="174" font-family="Arial" font-size="10">nextday(k*5)</text>
<text x="120" y="20" font-family="Arial" font-size="10" text-anchor="middle">Analemma Tilt @ Vernal Eq (Lat 40°N)</text>
</svg>
